<?xml version="1.0" encoding="utf-8"?>
<!-- Generator: Adobe Illustrator 22.1.0, SVG Export Plug-In . SVG Version: 6.00 Build 0)  -->
<svg version="1.1" id="Layer_1" xmlns="http://www.w3.org/2000/svg" xmlns:xlink="http://www.w3.org/1999/xlink" x="0px" y="0px"
	 viewBox="0 0 512 512" style="enable-background:new 0 0 512 512;" xml:space="preserve">
<style type="text/css">
	.st0{fill:#191717;}
</style>
<g>
	<g>
		<path class="st0" d="M242.4,6.2C110.2,13.1,3.9,121.6-0.3,253.9c-3.7,117,70.8,216.8,175.2,251.6c12.7,2.5,17.4-5.5,17.4-12.3
			c0-5.9-0.4-26.3-0.4-47.5c-71.3,15.3-86.2-30.6-86.2-30.6c-11.5-29.7-28.4-37.4-28.4-37.4C53.9,362,79,362,79,362
			c25.9,1.7,39.5,26.3,39.5,26.3c22.9,39.1,59.9,28,74.7,21.2c2.1-16.6,8.9-28,16.1-34.4c-56.9-5.9-116.7-28-116.7-126.5
			c0-28,10.2-50.9,26.3-68.8c-2.5-6.4-11.5-32.7,2.5-67.9c0,0,21.7-6.8,70.5,26.3c20.4-5.5,42.5-8.5,64.1-8.5
			c21.7,0,43.7,3,64.1,8.5c48.8-33.1,70.5-26.3,70.5-26.3c14,35.2,5.1,61.6,2.5,67.9c16.6,17.8,26.3,40.8,26.3,68.8
			c0,98.5-59.9,120.1-117.2,126.5c9.3,8.1,17.4,23.3,17.4,47.5c0,34.4-0.4,62-0.4,70.5c0,6.8,4.7,14.9,17.4,12.3
			C438.6,471.6,512,375.6,512,262.3C512.4,116,389.9-1.4,242.4,6.2z"/>
		<path class="st0" d="M95.5,373.9c-0.4,1.3-2.5,1.7-4.2,0.8c-1.7-0.8-3-2.5-2.1-3.8c0.4-1.3,2.5-1.7,4.2-0.8S95.9,372.7,95.5,373.9
			L95.5,373.9z"/>
		<path class="st0" d="M105.7,385.4c-1.3,1.3-3.8,0.4-5.1-1.3c-1.7-1.7-2.1-4.2-0.8-5.5c1.3-1.3,3.4-0.4,5.1,1.3
			C106.5,382,106.9,384.5,105.7,385.4L105.7,385.4z"/>
		<path class="st0" d="M115.9,400.2c-1.7,1.3-4.2,0-5.5-2.1c-1.7-2.1-1.7-5.1,0-5.9c1.7-1.3,4.2,0,5.5,2.1
			C117.6,396.4,117.6,399,115.9,400.2L115.9,400.2z"/>
		<path class="st0" d="M129.9,414.7c-1.3,1.7-4.2,1.3-6.8-0.8c-2.1-2.1-3-5.1-1.3-6.4c1.3-1.7,4.2-1.3,6.8,0.8
			C130.7,410,131.1,413,129.9,414.7L129.9,414.7z"/>
		<path class="st0" d="M149,422.7c-0.4,2.1-3.4,3-6.4,2.1s-4.7-3.4-4.2-5.1c0.4-2.1,3.4-3,6.4-2.1
			C147.7,418.5,149.4,420.6,149,422.7L149,422.7z"/>
		<path class="st0" d="M169.8,424.4c0,2.1-2.5,3.8-5.5,3.8c-3,0-5.5-1.7-5.5-3.8c0-2.1,2.5-3.8,5.5-3.8
			C167.2,420.6,169.8,422.3,169.8,424.4L169.8,424.4z"/>
		<path class="st0" d="M189.3,421.1c0.4,2.1-1.7,4.2-4.7,4.7c-3,0.4-5.5-0.8-5.9-3c-0.4-2.1,1.7-4.2,4.7-4.7
			C186.3,417.7,188.9,418.9,189.3,421.1L189.3,421.1z"/>
	</g>
</g>
</svg>
